# xmcd
#
# Track frame offsets: 
#        150
#        12750
#        29935
#        43762
#        54347
#        66685
#        84837
#        97612
#        111387
#        122200
#        133787
#        152535
#
# Disc length: 2212 seconds
#
# Revision: 4
# Processed by: cddbd v1.5.2PL0 Copyright (c) Steve Scherf et al.
# Submitted via: ExactAudioCopyFreeDBPlugin 1.0
#
DISCID=9f08a20c
DTITLE=Various Artist - #1 Country Hits Of The 70's [CD2]
DYEAR=1995
DGENRE=Country
TTITLE0=Mickey Gilly - City Lights
TTITLE1=Ray Price - You're the Best Thing That Ever Happened To Me
TTITLE2=Tanya Tucker - Blood Red and Goin' Down
TTITLE3=Willie Nelson - Blue Eyes Crying in the Rain
TTITLE4=Charlie Rich - The Most Beautiful Girl
TTITLE5=Billy Swan - I Can Help
TTITLE6=Mickey Gilly - Room Full of Roses
TTITLE7=Sonny James - Is It Wrong (For Loving You)
TTITLE8=Sonny James - Would You Lay With Me(In A Field Of Stone)
TTITLE9=Joe Stampley - Roll On Big Mama
TTITLE10=Marty Robbins - El Paso City
TTITLE11=Mickey Gilley - Don't the Girls All Get Prettier At Closing T
TTITLE11=ime
EXTD=
EXTT0=Mickey Gilley\n
EXTT1=Ray Price\n
EXTT2=Tanya Tucker\n
EXTT3=Willie Nelson\n
EXTT4=Charlie Rich\n
EXTT5=Billy Swan\n
EXTT6=Mickey Gilley\n
EXTT7=Sonney James\n
EXTT8=Sonney James\n
EXTT9=Joe Stampley\n
EXTT10=Marty Robbins\n
EXTT11=Mickey Gilley\n
PLAYORDER=
